<svg xmlns="http://www.w3.org/2000/svg" viewBox="0 0 512 512">
  <defs>
    <linearGradient id="mainGradient" x1="0%" y1="0%" x2="100%" y2="100%">
      <stop offset="0%" style="stop-color:#22d3ee;stop-opacity:1" />
      <stop offset="100%" style="stop-color:#3b82f6;stop-opacity:1" />
    </linearGradient>
    <filter id="glow" x="-20%" y="-20%" width="140%" height="140%">
      <feGaussianBlur stdDeviation="10" result="blur" />
      <feComposite in="SourceGraphic" in2="blur" operator="over" />
    </filter>
  </defs>
  
  <!-- Main Container: Rounded Hexagon-like shape for modern tech feel -->
  <path d="M256 32 C132.3 32 32 132.3 32 256 C32 379.7 132.3 480 256 480 C379.7 480 480 379.7 480 256 C480 132.3 379.7 32 256 32 Z" fill="url(#mainGradient)" />
  
  <!-- Inner Stylized 'Q' / Aperture / Eye -->
  <path d="M256 128 C185.3 128 128 185.3 128 256 C128 326.7 185.3 384 256 384 C286.6 384 314.6 373.1 336.8 355.2 L370 388 L392 366 L358 332 C375 310 384 284 384 256 C384 185.3 326.7 128 256 128 Z M256 180 C298 180 332 214 332 256 C332 298 298 332 256 332 C214 332 180 298 180 256 C180 214 214 180 256 180 Z" fill="#ffffff" fill-opacity="0.95"/>
  
  <!-- Tech Accent: A digital spark or node -->
  <circle cx="360" cy="150" r="16" fill="#ffffff" fill-opacity="0.6" />
</svg>